# xmcd
#
# Track frame offsets: 
#        150
#        15409
#        33708
#        56570
#        73528
#
# Disc length: 1284 seconds
#
# Revision: 0
# Processed by: cddbd v1.5.2PL0 Copyright (c) Steve Scherf et al.
# Submitted via: ExactAudioCopy v1.0b1
#
DISCID=3b050205
DTITLE=志方あきこ - 白夢の繭
DYEAR=2011
DGENRE=Vocal
TTITLE0=Pitalacta ～陽月の舞～
TTITLE1=Pantalea
TTITLE2=幻想林
TTITLE3=誰ガ為ノ世界
TTITLE4=白夢の繭 ～Ricordando il passato～
EXTD=
EXTT0=
EXTT1=
EXTT2=
EXTT3=
EXTT4=
PLAYORDER=
